<svg xmlns="http://www.w3.org/2000/svg" width="342.538" height="328.461" viewBox="0 0 342.538 328.461">
  <g id="no_member" transform="translate(-0.938 -1.05)">
    <path id="Path_157285" data-name="Path 157285" d="M14.077,0H328.461a14.077,14.077,0,0,1,14.077,14.077V328.461H0V14.077A14.077,14.077,0,0,1,14.077,0Z" transform="translate(0.938 1.05)" fill="#d9d9d9"/>
    <path id="image_1_" data-name="image (1)" d="M93.868,87.25c-.466-.466-31.179-31.132-29.221-29.175L34.54,27.922,9.979,3.361A4.68,4.68,0,0,0,3.361,9.979l4.661,4.661A13.7,13.7,0,0,0,6.67,20.651v48.1L32.908,58.262a4.7,4.7,0,0,1,5.033,1.025l6.711,6.758L53.881,60.5l6.8,6.8L46.331,75.925a4.726,4.726,0,0,1-5.686-.7l-7.131-7.177L6.856,78.721a13.988,13.988,0,0,0,13.8,11.838H76.578a13.7,13.7,0,0,0,6.012-1.352l4.661,4.661a4.726,4.726,0,0,0,6.618,0,4.7,4.7,0,0,0,0-6.618Zm-59.235-43.3a9.348,9.348,0,0,1-9.321-9.321,7.921,7.921,0,0,1,.326-2.377L37.01,43.628a7.921,7.921,0,0,1-2.377.326Zm0-32.624A4.674,4.674,0,0,1,39.293,6.67H76.578A14.023,14.023,0,0,1,90.559,20.651V57.935a4.661,4.661,0,0,1-9.321,0V20.651a4.674,4.674,0,0,0-4.661-4.661H39.293a4.674,4.674,0,0,1-4.661-4.661Z" transform="translate(123.756 116.359)" fill="#fff"/>
  </g>
</svg>
