<svg xmlns="http://www.w3.org/2000/svg" width="168.732" height="186.81" viewBox="0 0 168.732 186.81">
  <g id="pdf" transform="translate(-24.774)">
    <path id="Path_157202" data-name="Path 157202" d="M45.866,288.363H39.839A15.065,15.065,0,0,1,24.774,273.3a9.039,9.039,0,0,1,9.039-9.039H45.865v24.1Z" transform="translate(0 -167.841)" fill="#bd4150"/>
    <path id="Path_157203" data-name="Path 157203" d="M196.92,0H85.437l-3.1,6.026V183.891h141.7l6.026-3.107V33.144Z" transform="translate(-36.558 0)" fill="#eceaec"/>
    <path id="Path_157204" data-name="Path 157204" d="M80.349,171.745V0a6.026,6.026,0,0,0-6.026,6.026V180.784a6.026,6.026,0,0,0,6.026,6.026h138.6a6.026,6.026,0,0,0,6.026-6.026H89.388a9.039,9.039,0,0,1-9.039-9.039Z" transform="translate(-31.47 0)" fill="#dad8db"/>
    <path id="Path_157205" data-name="Path 157205" d="M429.531,32.626a6.026,6.026,0,0,0-1.765-4.261l-26.6-26.6A6.026,6.026,0,0,0,396.9,0h-.516V30.131a3.013,3.013,0,0,0,3.013,3.013h30.131Z" transform="translate(-236.025)" fill="#dad8db"/>
    <path id="Path_157206" data-name="Path 157206" d="M132.654,312.911h-93.4a9.022,9.022,0,0,1-3.014-.515l-2.9,4.842v38.067a9.039,9.039,0,0,0,9.039,9.039h90.282l6.026-3.225V318.937A6.026,6.026,0,0,0,132.654,312.911Z" transform="translate(-5.436 -198.414)" fill="#e15f78"/>
    <path id="Path_157207" data-name="Path 157207" d="M30.8,297.557a9.063,9.063,0,0,1-6.026-8.525v54.235a9.039,9.039,0,0,0,9.039,9.039h93.4a6.026,6.026,0,0,0,6.026-6.026h-93.4a9.039,9.039,0,0,1-9.039-9.039Z" transform="translate(0 -183.575)" fill="#db4655"/>
    <g id="Group_50174" data-name="Group 50174" transform="translate(45.777 126.549)">
      <path id="Path_157208" data-name="Path 157208" d="M239.667,358.818h-5.914v-5.711h6.685a3.013,3.013,0,1,0,0-6.026h-9.7a3.012,3.012,0,0,0-3.013,3.013v23.928a3.013,3.013,0,1,0,6.026,0v-9.177h5.914a3.013,3.013,0,0,0,0-6.026Z" transform="translate(-174.679 -346.993)" fill="#fff"/>
      <path id="Path_157209" data-name="Path 157209" d="M92.063,346.839H85.351a3.01,3.01,0,0,0-3.011,3.013h0v24.1a3.013,3.013,0,1,0,6.026,0v-7.473c1.352-.007,2.838-.014,3.7-.014a9.816,9.816,0,1,0,0-19.631Zm0,13.6c-.853,0-2.325.006-3.669.013-.006-1.39-.02-7.591-.02-7.591h3.69a3.791,3.791,0,1,1,0,7.578Z" transform="translate(-82.338 -346.839)" fill="#fff"/>
      <path id="Path_157210" data-name="Path 157210" d="M161.467,347.815h-6.623a3.011,3.011,0,0,0-3.013,3.019l.018,11.664c0,3.253.03,11.733.03,11.733a3.014,3.014,0,0,0,3.013,3h.012s4.911-.019,6.812-.051c7.077-.125,12.214-6.29,12.214-14.658C173.929,353.726,168.92,347.815,161.467,347.815Zm.141,23.341c-.862.015-2.354.028-3.713.035-.009-2.758-.02-6.7-.02-8.694l-.012-8.657h3.6c6.126,0,6.435,7.233,6.435,8.683C167.9,366.766,165.957,371.079,161.609,371.156Z" transform="translate(-126.476 -347.459)" fill="#fff"/>
    </g>
    <path id="Path_157211" data-name="Path 157211" d="M185.375,150.445a6.98,6.98,0,0,1-5.9-3.491c-2.2-3.387-1.618-7.222,1.58-10.524,3.225-3.331,9.825-6.465,17.767-9.023a154.945,154.945,0,0,0,7.356-16.178c1.392-3.571,2.516-6.79,3.416-9.669-3.969-7.277-6.329-14.052-5.7-18.451.639-4.464,3.972-6.977,8.927-6.7,1.471.08,4.981.848,5.829,6.253.647,4.133-.441,10.813-2.625,18.405a114.6,114.6,0,0,0,15.336,20.163c8.374-.51,15.471.1,19.04,2.254a6.04,6.04,0,0,1,2.936,7.353c-1.565,4.768-5.346,6.953-10.125,5.839-4.022-.939-9.007-4.451-14.062-9.326a140.36,140.36,0,0,0-26.094,4.839c-5.011,8.994-10.428,16-14.977,17.734A7.528,7.528,0,0,1,185.375,150.445Zm-.847-6.766c.5.774.78.758.909.743,1.918-.2,5.114-3.507,8.763-9.106a40.781,40.781,0,0,0-6.394,3.359C183.244,141.7,184.212,143.188,184.527,143.679Zm53.082-16.729a19.626,19.626,0,0,0,6.968,3.856c1.562.363,2.366.178,3.031-1.848C246.719,127.61,242.938,126.963,237.609,126.95Zm-23.931-18.579a164.329,164.329,0,0,1-6.985,16.8,146.516,146.516,0,0,1,17.284-3.244,119.372,119.372,0,0,1-10.3-13.553ZM212.227,82.31c-2.139,0-2.251.8-2.375,1.649-.315,2.226.468,5.392,2.013,9.042,1.362-6.5,1.086-9.945.424-10.691Z" transform="translate(-97.42 -48.516)" fill="#e15f78"/>
  </g>
</svg>
